<svg xmlns="http://www.w3.org/2000/svg" width="1200" height="800" viewBox="0 0 1200 800">
  <defs>
    <linearGradient id="bg" x1="0" y1="0" x2="1" y2="1">
      <stop offset="0%" stop-color="#0b1a14" />
      <stop offset="60%" stop-color="#0f3a28" />
      <stop offset="100%" stop-color="#2ddf8c" />
    </linearGradient>
    <linearGradient id="grid" x1="0" y1="0" x2="0" y2="1">
      <stop offset="0%" stop-color="#ffffff" stop-opacity="0.08" />
      <stop offset="100%" stop-color="#ffffff" stop-opacity="0" />
    </linearGradient>
  </defs>
  <rect width="1200" height="800" fill="url(#bg)" />
  <g stroke="#ffffff" stroke-opacity="0.14" stroke-width="1">
    <path d="M0 200 H1200" />
    <path d="M0 350 H1200" />
    <path d="M0 500 H1200" />
    <path d="M0 650 H1200" />
    <path d="M200 0 V800" />
    <path d="M400 0 V800" />
    <path d="M600 0 V800" />
    <path d="M800 0 V800" />
    <path d="M1000 0 V800" />
  </g>
  <rect x="120" y="140" width="520" height="360" rx="28" fill="rgba(255,255,255,0.12)" />
  <rect x="160" y="190" width="320" height="18" rx="9" fill="rgba(255,255,255,0.5)" />
  <rect x="160" y="230" width="260" height="12" rx="6" fill="rgba(255,255,255,0.3)" />
  <rect x="160" y="260" width="380" height="12" rx="6" fill="rgba(255,255,255,0.3)" />
  <rect x="160" y="310" width="180" height="12" rx="6" fill="rgba(255,255,255,0.3)" />
  <circle cx="860" cy="260" r="120" fill="url(#grid)" />
  <circle cx="860" cy="260" r="70" fill="rgba(255,255,255,0.18)" />
  <circle cx="920" cy="520" r="90" fill="rgba(255,255,255,0.12)" />
</svg>
